<svg width="35" height="10" viewBox="0 0 35 10" fill="none" xmlns="http://www.w3.org/2000/svg">
    <!-- <rect width="35" height="10" fill="white"/> -->
    <rect x="1.30676" y="1.30725" width="7.38552" height="7.38552" fill="#4682B4"/>
    <rect x="2.61072" width="1.84638" height="3.69276" transform="rotate(45 2.61072 0)" fill="#A4A4A4"/>
    <rect x="5.22192" width="1.84638" height="7.38552" transform="rotate(45 5.22192 0)" fill="#6E6E6E"/>
    <rect x="7.38342" y="9.99512" width="1.84638" height="3.69276" transform="rotate(-135 7.38342 9.99512)" fill="#A4A4A4"/>
    <rect x="4.77631" y="9.99915" width="1.84638" height="7.38552" transform="rotate(-135 4.77631 9.99915)" fill="#6E6E6E"/>
    <rect x="4.77631" y="9.99915" width="1.84638" height="7.38552" transform="rotate(-135 4.77631 9.99915)" fill="#6E6E6E"/>
    <path d="M12.332 4V1.2H13.7C14.052 1.2 14.316 1.26667 14.492 1.4C14.6707 1.53333 14.76 1.70933 14.76 1.928C14.76 2.07467 14.724 2.20267 14.652 2.312C14.58 2.41867 14.4813 2.50133 14.356 2.56C14.2307 2.61867 14.0867 2.648 13.924 2.648L14 2.484C14.176 2.484 14.332 2.51333 14.468 2.572C14.604 2.628 14.7093 2.712 14.784 2.824C14.8613 2.936 14.9 3.07333 14.9 3.236C14.9 3.476 14.8053 3.664 14.616 3.8C14.4267 3.93333 14.148 4 13.78 4H12.332ZM12.976 3.512H13.732C13.9 3.512 14.0267 3.48533 14.112 3.432C14.2 3.376 14.244 3.288 14.244 3.168C14.244 3.05067 14.2 2.964 14.112 2.908C14.0267 2.84933 13.9 2.82 13.732 2.82H12.928V2.348H13.62C13.7773 2.348 13.8973 2.32133 13.98 2.268C14.0653 2.212 14.108 2.128 14.108 2.016C14.108 1.90667 14.0653 1.82533 13.98 1.772C13.8973 1.716 13.7773 1.688 13.62 1.688H12.976V3.512ZM16.6346 4.048C16.2373 4.048 15.9266 3.93733 15.7026 3.716C15.4786 3.49467 15.3666 3.17867 15.3666 2.768V1.2H16.0146V2.744C16.0146 3.01067 16.0693 3.20267 16.1786 3.32C16.2879 3.43733 16.4413 3.496 16.6386 3.496C16.8359 3.496 16.9893 3.43733 17.0986 3.32C17.2079 3.20267 17.2626 3.01067 17.2626 2.744V1.2H17.9026V2.768C17.9026 3.17867 17.7906 3.49467 17.5666 3.716C17.3426 3.93733 17.0319 4.048 16.6346 4.048ZM18.5429 4V1.2H19.0789L20.7309 3.216H20.4709V1.2H21.1109V4H20.5789L18.9229 1.984H19.1829V4H18.5429ZM23.1134 4.048C22.8974 4.048 22.6961 4.01333 22.5094 3.944C22.3254 3.872 22.1654 3.77067 22.0294 3.64C21.8934 3.50933 21.7867 3.356 21.7094 3.18C21.6347 3.004 21.5974 2.81067 21.5974 2.6C21.5974 2.38933 21.6347 2.196 21.7094 2.02C21.7867 1.844 21.8934 1.69067 22.0294 1.56C22.1681 1.42933 22.3294 1.32933 22.5134 1.26C22.6974 1.188 22.8987 1.152 23.1174 1.152C23.3601 1.152 23.5787 1.19467 23.7734 1.28C23.9707 1.36267 24.1361 1.48533 24.2694 1.648L23.8534 2.032C23.7574 1.92267 23.6507 1.84133 23.5334 1.788C23.4161 1.732 23.2881 1.704 23.1494 1.704C23.0187 1.704 22.8987 1.72533 22.7894 1.768C22.6801 1.81067 22.5854 1.872 22.5054 1.952C22.4254 2.032 22.3627 2.12667 22.3174 2.236C22.2747 2.34533 22.2534 2.46667 22.2534 2.6C22.2534 2.73333 22.2747 2.85467 22.3174 2.964C22.3627 3.07333 22.4254 3.168 22.5054 3.248C22.5854 3.328 22.6801 3.38933 22.7894 3.432C22.8987 3.47467 23.0187 3.496 23.1494 3.496C23.2881 3.496 23.4161 3.46933 23.5334 3.416C23.6507 3.36 23.7574 3.276 23.8534 3.164L24.2694 3.548C24.1361 3.71067 23.9707 3.83467 23.7734 3.92C23.5787 4.00533 23.3587 4.048 23.1134 4.048ZM26.627 1.2H27.275V4H26.627V1.2ZM25.355 4H24.707V1.2H25.355V4ZM26.675 2.852H25.307V2.304H26.675V2.852ZM13.004 9L12.088 6.2H12.76L13.556 8.68H13.22L14.052 6.2H14.652L15.452 8.68H15.128L15.944 6.2H16.564L15.648 9H14.952L14.244 6.824H14.428L13.7 9H13.004ZM17.5218 7.328H18.8698V7.832H17.5218V7.328ZM17.5698 8.48H19.0938V9H16.9258V6.2H19.0418V6.72H17.5698V8.48ZM19.6093 9V6.2H20.9773C21.3293 6.2 21.5933 6.26667 21.7693 6.4C21.948 6.53333 22.0373 6.70933 22.0373 6.928C22.0373 7.07467 22.0013 7.20267 21.9293 7.312C21.8573 7.41867 21.7587 7.50133 21.6333 7.56C21.508 7.61867 21.364 7.648 21.2013 7.648L21.2773 7.484C21.4533 7.484 21.6093 7.51333 21.7453 7.572C21.8813 7.628 21.9867 7.712 22.0613 7.824C22.1387 7.936 22.1773 8.07333 22.1773 8.236C22.1773 8.476 22.0827 8.664 21.8933 8.8C21.704 8.93333 21.4253 9 21.0573 9H19.6093ZM20.2533 8.512H21.0093C21.1773 8.512 21.304 8.48533 21.3893 8.432C21.4773 8.376 21.5213 8.288 21.5213 8.168C21.5213 8.05067 21.4773 7.964 21.3893 7.908C21.304 7.84933 21.1773 7.82 21.0093 7.82H20.2053V7.348H20.8973C21.0547 7.348 21.1747 7.32133 21.2573 7.268C21.3427 7.212 21.3853 7.128 21.3853 7.016C21.3853 6.90667 21.3427 6.82533 21.2573 6.772C21.1747 6.716 21.0547 6.688 20.8973 6.688H20.2533V8.512ZM24.5879 6.2H25.2359V9H24.5879V6.2ZM23.3159 9H22.6679V6.2H23.3159V9ZM24.6359 7.852H23.2679V7.304H24.6359V7.852ZM27.2584 9.048C27.0371 9.048 26.8317 9.012 26.6424 8.94C26.4557 8.868 26.2931 8.76667 26.1544 8.636C26.0184 8.50533 25.9117 8.352 25.8344 8.176C25.7597 8 25.7224 7.808 25.7224 7.6C25.7224 7.392 25.7597 7.2 25.8344 7.024C25.9117 6.848 26.0197 6.69467 26.1584 6.564C26.2971 6.43333 26.4597 6.332 26.6464 6.26C26.8331 6.188 27.0357 6.152 27.2544 6.152C27.4757 6.152 27.6784 6.188 27.8624 6.26C28.0491 6.332 28.2104 6.43333 28.3464 6.564C28.4851 6.69467 28.5931 6.848 28.6704 7.024C28.7477 7.19733 28.7864 7.38933 28.7864 7.6C28.7864 7.808 28.7477 8.00133 28.6704 8.18C28.5931 8.356 28.4851 8.50933 28.3464 8.64C28.2104 8.768 28.0491 8.868 27.8624 8.94C27.6784 9.012 27.4771 9.048 27.2584 9.048ZM27.2544 8.496C27.3797 8.496 27.4944 8.47467 27.5984 8.432C27.7051 8.38933 27.7984 8.328 27.8784 8.248C27.9584 8.168 28.0197 8.07333 28.0624 7.964C28.1077 7.85467 28.1304 7.73333 28.1304 7.6C28.1304 7.46667 28.1077 7.34533 28.0624 7.236C28.0197 7.12667 27.9584 7.032 27.8784 6.952C27.8011 6.872 27.7091 6.81067 27.6024 6.768C27.4957 6.72533 27.3797 6.704 27.2544 6.704C27.1291 6.704 27.0131 6.72533 26.9064 6.768C26.8024 6.81067 26.7104 6.872 26.6304 6.952C26.5504 7.032 26.4877 7.12667 26.4424 7.236C26.3997 7.34533 26.3784 7.46667 26.3784 7.6C26.3784 7.73067 26.3997 7.852 26.4424 7.964C26.4877 8.07333 26.5491 8.168 26.6264 8.248C26.7064 8.328 26.7997 8.38933 26.9064 8.432C27.0131 8.47467 27.1291 8.496 27.2544 8.496ZM30.1934 9.048C29.9694 9.048 29.7547 9.01867 29.5494 8.96C29.3441 8.89867 29.1787 8.82 29.0534 8.724L29.2734 8.236C29.3934 8.32133 29.5347 8.392 29.6974 8.448C29.8627 8.50133 30.0294 8.528 30.1974 8.528C30.3254 8.528 30.4281 8.516 30.5054 8.492C30.5854 8.46533 30.6441 8.42933 30.6814 8.384C30.7187 8.33867 30.7374 8.28667 30.7374 8.228C30.7374 8.15333 30.7081 8.09467 30.6494 8.052C30.5907 8.00667 30.5134 7.97067 30.4174 7.944C30.3214 7.91467 30.2147 7.888 30.0974 7.864C29.9827 7.83733 29.8667 7.80533 29.7494 7.768C29.6347 7.73067 29.5294 7.68267 29.4334 7.624C29.3374 7.56533 29.2587 7.488 29.1974 7.392C29.1387 7.296 29.1094 7.17333 29.1094 7.024C29.1094 6.864 29.1521 6.71867 29.2374 6.588C29.3254 6.45467 29.4561 6.34933 29.6294 6.272C29.8054 6.192 30.0254 6.152 30.2894 6.152C30.4654 6.152 30.6387 6.17333 30.8094 6.216C30.9801 6.256 31.1307 6.31733 31.2614 6.4L31.0614 6.892C30.9307 6.81733 30.8001 6.76267 30.6694 6.728C30.5387 6.69067 30.4107 6.672 30.2854 6.672C30.1601 6.672 30.0574 6.68667 29.9774 6.716C29.8974 6.74533 29.8401 6.784 29.8054 6.832C29.7707 6.87733 29.7534 6.93067 29.7534 6.992C29.7534 7.064 29.7827 7.12267 29.8414 7.168C29.9001 7.21067 29.9774 7.24533 30.0734 7.272C30.1694 7.29867 30.2747 7.32533 30.3894 7.352C30.5067 7.37867 30.6227 7.40933 30.7374 7.444C30.8547 7.47867 30.9614 7.52533 31.0574 7.584C31.1534 7.64267 31.2307 7.72 31.2894 7.816C31.3507 7.912 31.3814 8.03333 31.3814 8.18C31.3814 8.33733 31.3374 8.48133 31.2494 8.612C31.1614 8.74267 31.0294 8.848 30.8534 8.928C30.6801 9.008 30.4601 9.048 30.1934 9.048ZM32.3651 9V6.728H31.4691V6.2H33.9091V6.728H33.0131V9H32.3651Z" fill="black"/>
</svg>
